<svg xmlns="http://www.w3.org/2000/svg" viewBox="0 0 1600 760" role="img" aria-labelledby="title desc">
  <title id="title">Warehouse radio visibility section treatment</title>
  <desc id="desc">A subtle dark technical background treatment with grid, signal paths, and nodes—designed to sit behind a four-card grid on Memo’s warehousing and logistics page.</desc>
  <defs>
    <linearGradient id="bgGradient" x1="0%" y1="0%" x2="100%" y2="100%">
      <stop offset="0%" stop-color="#04060a"/>
      <stop offset="55%" stop-color="#05080d"/>
      <stop offset="100%" stop-color="#07101a"/>
    </linearGradient>
    <radialGradient id="blueGlow" cx="18%" cy="28%" r="70%">
      <stop offset="0%" stop-color="#1fe1ff" stop-opacity="0.22"/>
      <stop offset="42%" stop-color="#0d6f96" stop-opacity="0.11"/>
      <stop offset="100%" stop-color="#0d6f96" stop-opacity="0"/>
    </radialGradient>
    <radialGradient id="amberGlow" cx="86%" cy="18%" r="60%">
      <stop offset="0%" stop-color="#ff7a1a" stop-opacity="0.16"/>
      <stop offset="44%" stop-color="#ff7a1a" stop-opacity="0.06"/>
      <stop offset="100%" stop-color="#ff7a1a" stop-opacity="0"/>
    </radialGradient>
    <pattern id="gridPattern" width="48" height="48" patternUnits="userSpaceOnUse">
      <path d="M 48 0 L 0 0 0 48" fill="none" stroke="#1b2836" stroke-width="1"/>
    </pattern>
    <pattern id="microPattern" width="12" height="12" patternUnits="userSpaceOnUse">
      <circle cx="1.5" cy="1.5" r="1" fill="#152535"/>
    </pattern>
    <linearGradient id="signalGradient" x1="0%" y1="0%" x2="100%" y2="0%">
      <stop offset="0%" stop-color="#1fe1ff"/>
      <stop offset="54%" stop-color="#7de6ff"/>
      <stop offset="80%" stop-color="#ff8a2e"/>
      <stop offset="100%" stop-color="#dfeeff"/>
    </linearGradient>
    <filter id="glowBlue" x="-40%" y="-40%" width="180%" height="180%">
      <feGaussianBlur stdDeviation="10" result="blur"/>
      <feColorMatrix in="blur" type="matrix" values="1 0 0 0 0  0 1 0 0 0.58  0 0 1 0 0.72  0 0 0 1 0"/>
    </filter>
    <filter id="glowAmber" x="-40%" y="-40%" width="180%" height="180%">
      <feGaussianBlur stdDeviation="10" result="blur"/>
      <feColorMatrix in="blur" type="matrix" values="1 0 0 0 0.22  0 1 0 0 0.09  0 0 1 0 0  0 0 0 1 0"/>
    </filter>
    <linearGradient id="cardFill" x1="0%" y1="0%" x2="100%" y2="100%">
      <stop offset="0%" stop-color="#0a131d" stop-opacity="0.96"/>
      <stop offset="100%" stop-color="#080d14" stop-opacity="0.98"/>
    </linearGradient>
    <linearGradient id="cardStrokeCool" x1="0%" y1="0%" x2="100%" y2="0%">
      <stop offset="0%" stop-color="#27455b"/>
      <stop offset="100%" stop-color="#182736"/>
    </linearGradient>
    <linearGradient id="cardStrokeWarm" x1="0%" y1="0%" x2="100%" y2="0%">
      <stop offset="0%" stop-color="#5e3316"/>
      <stop offset="100%" stop-color="#182736"/>
    </linearGradient>
    <style><![CDATA[
      .treatment {
        shape-rendering: geometricPrecision;
      }
      .ui {
        text-rendering: geometricPrecision;
        -webkit-font-smoothing: antialiased;
      }
      .headline {
        fill: #f4f7fb;
        font-family: "Space Grotesk", "Avenir Next", "Helvetica Neue", sans-serif;
        font-size: 44px;
        font-weight: 600;
        letter-spacing: -0.04em;
      }
      .card-title {
        fill: #f7faff;
        font-family: "Space Grotesk", "Avenir Next", "Helvetica Neue", sans-serif;
        font-size: 20px;
        font-weight: 600;
        letter-spacing: -0.03em;
      }
      .card-copy {
        fill: #f7faff;
        font-family: "Space Grotesk", "Avenir Next", "Helvetica Neue", sans-serif;
        font-size: 14px;
        font-weight: 400;
        letter-spacing: 0.01em;
      }
      .cta-text {
        fill: #f7faff;
        font-family: "Space Grotesk", "Avenir Next", "Helvetica Neue", sans-serif;
        font-size: 18px;
        font-weight: 600;
        letter-spacing: -0.01em;
      }
      .icon-stroke {
        fill: none;
        stroke-linecap: round;
        stroke-linejoin: round;
      }
      .hairline {
        fill: none;
        stroke: #15212f;
        stroke-width: 1;
        opacity: 0.9;
      }
      .dash {
        fill: none;
        stroke-width: 1;
        stroke-linecap: round;
        stroke-dasharray: 3 12;
        opacity: 0.28;
      }
    ]]></style>
  </defs>

  <rect width="1600" height="760" fill="url(#bgGradient)"/>
  <rect width="1600" height="760" fill="url(#blueGlow)"/>
  <rect width="1600" height="760" fill="url(#amberGlow)"/>
  <rect width="1600" height="760" fill="url(#gridPattern)" opacity="0.14"/>
  <rect width="1600" height="760" fill="url(#microPattern)" opacity="0.08"/>

  <!-- Header -->
  <g class="ui">
    <text class="headline" x="800" y="95" text-anchor="middle">
      <tspan x="800" dy="0">The inconvenient truth: zero visibility into radio traffic</tspan>
      <tspan x="800" dy="52">slows warehouse execution</tspan>
    </text>
  </g>

  <!-- Section container guides (subtle) -->
  <g class="treatment" opacity="0.82">
    <path class="hairline" d="M160 180 H1440"/>
    <path class="hairline" d="M160 582 H1440"/>
    <path class="hairline" d="M800 240 V520" opacity="0.55"/>
    <path class="hairline" d="M240 240 H1360" opacity="0.55"/>
    <path class="hairline" d="M240 520 H1360" opacity="0.55"/>
  </g>

  <!-- Signal path running behind a 2x2 grid of cards -->
  <g class="treatment">
    <path d="M220 360 C360 300 500 290 620 332 S808 416 980 392 S1220 320 1380 360"
          fill="none" stroke="#0b2231" stroke-width="3" stroke-linecap="round" opacity="0.9"/>
    <path d="M220 360 C360 300 500 290 620 332 S808 416 980 392 S1220 320 1380 360"
          fill="none" stroke="url(#signalGradient)" stroke-width="10" stroke-linecap="round"
          opacity="0.14" filter="url(#glowBlue)"/>
    <path d="M220 360 C360 300 500 290 620 332 S808 416 980 392 S1220 320 1380 360"
          fill="none" stroke="url(#signalGradient)" stroke-width="5" stroke-linecap="round" opacity="0.22"/>

    <!-- Dashed "radio traffic" echoes -->
    <path class="dash" d="M260 312 C420 270 520 282 650 330 S860 420 990 392 S1210 330 1348 344" stroke="#7de6ff"/>
    <path class="dash" d="M260 410 C420 450 520 438 650 390 S860 300 990 328 S1210 390 1348 376" stroke="#ff8a2e"/>
  </g>

  <!-- Four node anchors roughly aligned to card positions -->
  <g class="treatment" opacity="0.92">
    <g transform="translate(0 0)">
      <circle cx="520" cy="318" r="6" fill="#1fe1ff"/>
      <circle cx="520" cy="318" r="16" fill="none" stroke="#1fe1ff" stroke-opacity="0.22"/>
    </g>
    <g transform="translate(0 0)">
      <circle cx="1080" cy="330" r="6" fill="#ff8a2e"/>
      <circle cx="1080" cy="330" r="16" fill="none" stroke="#ff8a2e" stroke-opacity="0.18"/>
    </g>
    <g transform="translate(0 0)">
      <circle cx="560" cy="446" r="6" fill="#7de6ff"/>
      <circle cx="560" cy="446" r="16" fill="none" stroke="#7de6ff" stroke-opacity="0.2"/>
    </g>
    <g transform="translate(0 0)">
      <circle cx="1120" cy="434" r="6" fill="#dfeeff"/>
      <circle cx="1120" cy="434" r="16" fill="none" stroke="#ff7a1a" stroke-opacity="0.12" filter="url(#glowAmber)"/>
    </g>
  </g>

  <!-- Edge glints (kept minimal for performance) -->
  <g class="treatment" opacity="0.28">
    <path d="M220 210 H420" fill="none" stroke="#41d9ff" stroke-width="2" stroke-linecap="round"/>
    <path d="M1180 210 H1380" fill="none" stroke="#ff7a1a" stroke-width="2" stroke-linecap="round"/>
    <path d="M260 556 H430" fill="none" stroke="#7de6ff" stroke-width="2" stroke-linecap="round"/>
    <path d="M1170 556 H1340" fill="none" stroke="#ff8a2e" stroke-width="2" stroke-linecap="round"/>
  </g>

  <!-- Foreground cards (2x2) -->
  <g class="ui">
    <!-- Card 1 -->
    <g transform="translate(140 220)">
      <rect width="600" height="200" rx="28" fill="url(#cardFill)" stroke="url(#cardStrokeCool)" stroke-width="1.4"/>
      <rect x="10" y="10" width="580" height="180" rx="20" fill="none" stroke="#ffffff" stroke-opacity="0.04"/>
      <path d="M30 28 H122" fill="none" stroke="#7de6ff" stroke-width="2" stroke-linecap="round" opacity="0.95"/>
      <g transform="translate(30 44)">
        <rect width="44" height="44" rx="16" fill="#0d1722" stroke="#27455b"/>
        <g transform="translate(8 8)">
          <path class="icon-stroke" d="M14 2 L24 20 H4 Z" stroke="#ff8a2e" stroke-width="1.8"/>
          <path class="icon-stroke" d="M14 8 V14" stroke="#7de6ff" stroke-width="1.8"/>
          <path class="icon-stroke" d="M14 17 H14.01" stroke="#7de6ff" stroke-width="2.4"/>
        </g>
      </g>
      <text class="card-title" x="92" y="64">
        <tspan x="92" dy="0">Execution issues are often visible on the radio</tspan>
        <tspan x="92" dy="24">before they show up in a report</tspan>
      </text>
      <text class="card-copy" x="92" y="118">
        <tspan x="92" dy="0">The first signs of congestion, delayed replenishment, short picks,</tspan>
        <tspan x="92" dy="20">dock slowdowns, and missed handoffs often surface over radio long</tspan>
        <tspan x="92" dy="20">before they appear in system data or supervisor review.</tspan>
      </text>
    </g>

    <!-- Card 2 -->
    <g transform="translate(860 220)">
      <rect width="600" height="200" rx="28" fill="url(#cardFill)" stroke="url(#cardStrokeWarm)" stroke-width="1.4"/>
      <rect x="10" y="10" width="580" height="180" rx="20" fill="none" stroke="#ffffff" stroke-opacity="0.04"/>
      <path d="M30 28 H122" fill="none" stroke="#ff8a2e" stroke-width="2" stroke-linecap="round" opacity="0.95"/>
      <g transform="translate(30 44)">
        <rect width="44" height="44" rx="16" fill="#160f0a" stroke="#5e3316"/>
        <g transform="translate(9 9.6) scale(1.18)">
          <rect x="3.2" y="5.2" width="15.6" height="10.6" rx="2.4" fill="none" stroke="#7de6ff" stroke-width="1.7"/>
          <path class="icon-stroke" d="M5.2 8.2 H16.8" stroke="#2b4357" stroke-width="1.5"/>
          <path class="icon-stroke" d="M5.2 11.2 H12.2" stroke="#2b4357" stroke-width="1.5"/>
          <circle cx="16.1" cy="13.3" r="1.1" fill="#ff8a2e"/>
          <path class="icon-stroke" d="M4.3 16.7 L18.1 3.9" stroke="#ff8a2e" stroke-width="1.9"/>
          <circle cx="11" cy="10.5" r="8.2" fill="none" stroke="#ff8a2e" stroke-opacity="0.22" stroke-width="1.4"/>
        </g>
      </g>
      <text class="card-title" x="92" y="64">
        <tspan x="92" dy="0">There is no clear record of how exceptions</tspan>
        <tspan x="92" dy="24">unfolded</tspan>
      </text>
      <text class="card-copy" x="92" y="118">
        <tspan x="92" dy="0">When orders miss cutoff, a trailer gets backed up, or a floor</tspan>
        <tspan x="92" dy="20">issue escalates, teams often cannot easily reconstruct when it was</tspan>
        <tspan x="92" dy="20">first called out, how it was routed, or where the response slowed down.</tspan>
      </text>
    </g>

    <!-- Card 3 -->
    <g transform="translate(140 430)">
      <rect width="600" height="200" rx="28" fill="url(#cardFill)" stroke="url(#cardStrokeWarm)" stroke-width="1.4"/>
      <rect x="10" y="10" width="580" height="180" rx="20" fill="none" stroke="#ffffff" stroke-opacity="0.04"/>
      <path d="M30 28 H122" fill="none" stroke="#ff7a1a" stroke-width="2" stroke-linecap="round" opacity="0.95"/>
      <g transform="translate(30 44)">
        <rect width="44" height="44" rx="16" fill="#160f0a" stroke="#5e3316"/>
        <g transform="translate(8 8)">
          <!-- Two gears + strike-through -->
          <circle cx="10.6" cy="10.8" r="4.2" fill="none" stroke="#7de6ff" stroke-width="1.7"/>
          <circle cx="10.6" cy="10.8" r="1.9" fill="none" stroke="#2b4357" stroke-width="1.6"/>
          <path class="icon-stroke" d="M10.6 5.2 V3.7 M10.6 17.9 V16.4 M5 10.8 H3.5 M17.7 10.8 H16.2" stroke="#7de6ff" stroke-width="1.7"/>
          <path class="icon-stroke" d="M6.6 6.9 L5.5 5.8 M15.7 15.8 L14.6 14.7 M14.6 6.9 L15.7 5.8 M5.5 15.8 L6.6 14.7" stroke="#7de6ff" stroke-width="1.45"/>

          <circle cx="17.2" cy="15.8" r="2.9" fill="none" stroke="#7de6ff" stroke-width="1.6"/>
          <circle cx="17.2" cy="15.8" r="1.25" fill="none" stroke="#2b4357" stroke-width="1.4"/>
          <path class="icon-stroke" d="M17.2 12.7 V11.7 M17.2 20.0 V19.0 M14.1 15.8 H13.1 M21.3 15.8 H20.3" stroke="#7de6ff" stroke-width="1.6"/>

          <path class="icon-stroke" d="M4.2 18.6 L20.6 4.6" stroke="#ff8a2e" stroke-width="2"/>
          <circle cx="12.6" cy="12.6" r="8.6" fill="none" stroke="#ff7a1a" stroke-opacity="0.16" stroke-width="1.2"/>
        </g>
      </g>
      <text class="card-title" x="92" y="64">
        <tspan x="92" dy="0">The same coordination problems keep repeating</tspan>
        <tspan x="92" dy="24">across shifts</tspan>
      </text>
      <text class="card-copy" x="92" y="118">
        <tspan x="92" dy="0">Delayed replenishment, incomplete handoffs, picking confusion,</tspan>
        <tspan x="92" dy="20">dock misalignment, and recurring response gaps can happen every day —</tspan>
        <tspan x="92" dy="20">but without visibility into communication patterns,</tspan>
        <tspan x="92" dy="20">they stay buried in live radio traffic.</tspan>
      </text>
    </g>

    <!-- Card 4 -->
    <g transform="translate(860 430)">
      <rect width="600" height="200" rx="28" fill="url(#cardFill)" stroke="url(#cardStrokeCool)" stroke-width="1.4"/>
      <rect x="10" y="10" width="580" height="180" rx="20" fill="none" stroke="#ffffff" stroke-opacity="0.04"/>
      <path d="M30 28 H122" fill="none" stroke="#1fe1ff" stroke-width="2" stroke-linecap="round" opacity="0.95"/>
      <g transform="translate(30 44)">
        <rect width="44" height="44" rx="16" fill="#0d1722" stroke="#27455b"/>
        <g transform="translate(9 9.6) scale(1.18)">
          <path class="icon-stroke" d="M3 10.5 C5.2 6.8 8.2 4.9 11 4.9 C13.8 4.9 16.8 6.8 19 10.5 C16.8 14.2 13.8 16.1 11 16.1 C8.2 16.1 5.2 14.2 3 10.5 Z" stroke="#7de6ff" stroke-width="1.7"/>
          <circle cx="11" cy="10.5" r="2.4" fill="none" stroke="#2b4357" stroke-width="1.6"/>
          <path class="icon-stroke" d="M4.2 17.2 L18.2 3.8" stroke="#ff8a2e" stroke-width="1.9"/>
          <circle cx="11" cy="10.5" r="8.2" fill="none" stroke="#ff8a2e" stroke-opacity="0.22" stroke-width="1.4"/>
        </g>
      </g>
      <text class="card-title" x="92" y="64">
        <tspan x="92" dy="0">Warehouse leaders are managing without visibility</tspan>
        <tspan x="92" dy="24">into frontline execution</tspan>
      </text>
      <text class="card-copy" x="92" y="118">
        <tspan x="92" dy="0">The radio is where floor reality lives, but most operations have no</tspan>
        <tspan x="92" dy="20">clean way to capture, review, or learn from the communication behind</tspan>
        <tspan x="92" dy="20">daily execution.</tspan>
      </text>
    </g>
  </g>

  <!-- CTA button -->
  <g class="ui" transform="translate(0 0)">
    <g transform="translate(640 662)">
      <rect width="320" height="58" rx="29" fill="#0a131d" stroke="#6a3d1f" stroke-width="1.4"/>
      <rect x="8" y="8" width="304" height="42" rx="21" fill="none" stroke="#ffffff" stroke-opacity="0.04"/>
      <circle cx="34" cy="29" r="6" fill="#ff7a1a"/>
      <circle cx="34" cy="29" r="12" fill="none" stroke="#ff7a1a" stroke-opacity="0.18"/>
      <text class="cta-text" x="170" y="36" text-anchor="middle">Schedule a time to speak</text>
    </g>
  </g>
</svg>
