<svg xmlns="http://www.w3.org/2000/svg" viewBox="0 0 1600 900" role="img" aria-labelledby="title desc">
  <title id="title">Memo hotel industry hero section</title>
  <desc id="desc">A premium split-layout hero for Memo's hotel page, showing radio traffic converging into a Memo focal node and resolving into cleaner operational insight.</desc>
  <defs>
    <linearGradient id="bgGradient" x1="0%" y1="0%" x2="100%" y2="100%">
      <stop offset="0%" stop-color="#04060a"/>
      <stop offset="55%" stop-color="#05080d"/>
      <stop offset="100%" stop-color="#07101a"/>
    </linearGradient>
    <radialGradient id="blueGlow" cx="18%" cy="28%" r="70%">
      <stop offset="0%" stop-color="#1fe1ff" stop-opacity="0.22"/>
      <stop offset="42%" stop-color="#0d6f96" stop-opacity="0.11"/>
      <stop offset="100%" stop-color="#0d6f96" stop-opacity="0"/>
    </radialGradient>
    <radialGradient id="amberGlow" cx="86%" cy="18%" r="60%">
      <stop offset="0%" stop-color="#ff7a1a" stop-opacity="0.16"/>
      <stop offset="44%" stop-color="#ff7a1a" stop-opacity="0.06"/>
      <stop offset="100%" stop-color="#ff7a1a" stop-opacity="0"/>
    </radialGradient>
    <radialGradient id="leftGlow" cx="30%" cy="46%" r="46%">
      <stop offset="0%" stop-color="#123f57" stop-opacity="0.18"/>
      <stop offset="60%" stop-color="#123f57" stop-opacity="0.05"/>
      <stop offset="100%" stop-color="#123f57" stop-opacity="0"/>
    </radialGradient>
    <radialGradient id="nodeAura" cx="50%" cy="50%" r="50%">
      <stop offset="0%" stop-color="#1fe1ff" stop-opacity="0.22"/>
      <stop offset="46%" stop-color="#0d6f96" stop-opacity="0.08"/>
      <stop offset="72%" stop-color="#ff7a1a" stop-opacity="0.06"/>
      <stop offset="100%" stop-color="#07101a" stop-opacity="0"/>
    </radialGradient>
    <linearGradient id="signalGradient" x1="0%" y1="0%" x2="100%" y2="0%">
      <stop offset="0%" stop-color="#dfeeff"/>
      <stop offset="22%" stop-color="#7de6ff"/>
      <stop offset="58%" stop-color="#1fe1ff"/>
      <stop offset="82%" stop-color="#7de6ff"/>
      <stop offset="100%" stop-color="#ff8a2e"/>
    </linearGradient>
    <linearGradient id="signalGradientReverse" x1="100%" y1="0%" x2="0%" y2="0%">
      <stop offset="0%" stop-color="#dfeeff"/>
      <stop offset="24%" stop-color="#7de6ff"/>
      <stop offset="56%" stop-color="#1fe1ff"/>
      <stop offset="84%" stop-color="#7de6ff"/>
      <stop offset="100%" stop-color="#ff8a2e"/>
    </linearGradient>
    <linearGradient id="buttonFill" x1="0%" y1="0%" x2="100%" y2="100%">
      <stop offset="0%" stop-color="#0a131d" stop-opacity="0.98"/>
      <stop offset="100%" stop-color="#080d14" stop-opacity="0.99"/>
    </linearGradient>
    <linearGradient id="buttonStroke" x1="0%" y1="0%" x2="100%" y2="0%">
      <stop offset="0%" stop-color="#6f3e1d"/>
      <stop offset="100%" stop-color="#2a3948"/>
    </linearGradient>
    <linearGradient id="chipFill" x1="0%" y1="0%" x2="100%" y2="100%">
      <stop offset="0%" stop-color="#0c1621" stop-opacity="0.96"/>
      <stop offset="100%" stop-color="#09111a" stop-opacity="0.98"/>
    </linearGradient>
    <linearGradient id="chipStroke" x1="0%" y1="0%" x2="100%" y2="0%">
      <stop offset="0%" stop-color="#27455b"/>
      <stop offset="100%" stop-color="#182736"/>
    </linearGradient>
    <linearGradient id="chipStrokeWarm" x1="0%" y1="0%" x2="100%" y2="0%">
      <stop offset="0%" stop-color="#5e3316"/>
      <stop offset="100%" stop-color="#182736"/>
    </linearGradient>
    <linearGradient id="barFill" x1="0%" y1="0%" x2="100%" y2="0%">
      <stop offset="0%" stop-color="#7de6ff"/>
      <stop offset="72%" stop-color="#1fe1ff"/>
      <stop offset="100%" stop-color="#dfeeff"/>
    </linearGradient>
    <linearGradient id="barFillWarm" x1="0%" y1="0%" x2="100%" y2="0%">
      <stop offset="0%" stop-color="#7de6ff"/>
      <stop offset="78%" stop-color="#1fe1ff"/>
      <stop offset="100%" stop-color="#ff8a2e"/>
    </linearGradient>
    <pattern id="gridPattern" width="48" height="48" patternUnits="userSpaceOnUse">
      <path d="M 48 0 L 0 0 0 48" fill="none" stroke="#1b2836" stroke-width="1"/>
    </pattern>
    <pattern id="microPattern" width="12" height="12" patternUnits="userSpaceOnUse">
      <circle cx="1.5" cy="1.5" r="1" fill="#152535"/>
    </pattern>
    <filter id="glowBlue" x="-40%" y="-40%" width="180%" height="180%">
      <feGaussianBlur stdDeviation="10" result="blur"/>
      <feColorMatrix in="blur" type="matrix" values="1 0 0 0 0  0 1 0 0 0.58  0 0 1 0 0.72  0 0 0 1 0"/>
    </filter>
    <filter id="glowAmber" x="-40%" y="-40%" width="180%" height="180%">
      <feGaussianBlur stdDeviation="10" result="blur"/>
      <feColorMatrix in="blur" type="matrix" values="1 0 0 0 0.22  0 1 0 0 0.09  0 0 1 0 0  0 0 0 1 0"/>
    </filter>
    <path
      id="memoLogoIconPath"
      fill="#FE6301"
      fill-rule="evenodd"
      clip-rule="evenodd"
      d="M 927.5 81.0 C 955.3 101.5 985.7 153.8 997.0 177.5 C 1008.3 201.2 1021.1 216.7 1024.0 284.5 C 1026.9 352.3 1031.5 683.5 1022.0 758.5 C 1012.5 833.5 963.5 899.7 943.0 927.5 C 922.5 955.3 870.2 985.7 846.5 997.0 C 822.8 1008.3 807.3 1021.1 739.5 1024.0 C 671.7 1026.9 330.8 1025.0 265.5 1022.0 C 200.2 1019.0 200.0 1008.0 179.5 998.0 C 159.0 988.0 107.3 953.7 89.5 936.0 C 71.7 918.3 37.4 869.5 27.0 846.5 C 16.6 823.5 2.9 806.3 0.0 738.5 C -2.9 670.7 -1.0 330.7 2.0 265.5 C 5.0 200.3 16.0 200.0 26.0 179.5 C 36.0 159.0 70.3 107.3 88.0 89.5 C 105.7 71.7 154.6 37.4 177.5 27.0 C 200.4 16.6 216.7 2.9 284.5 0.0 C 352.3 -2.9 683.5 -7.4 758.5 2.0 C 833.5 11.4 899.7 60.5 927.5 81.0 Z M 816.0 224.5 C 835.1 245.9 851.2 283.0 856.0 314.5 C 860.8 346.0 858.5 395.4 848.0 434.5 C 837.5 473.6 811.1 535.1 786.0 575.5 C 760.9 615.9 713.6 671.5 680.5 704.0 C 647.4 736.5 602.2 770.4 565.5 792.0 C 528.8 813.6 474.2 838.5 435.5 848.0 C 396.8 857.5 340.3 860.8 307.5 855.0 C 274.7 849.2 237.8 830.3 217.0 809.5 C 196.2 788.7 175.2 749.6 169.0 716.5 C 162.8 683.4 165.7 628.7 176.0 588.5 C 186.3 548.3 212.9 488.8 238.0 448.5 C 263.1 408.2 308.3 353.7 343.5 320.0 C 378.7 286.3 432.9 246.2 472.5 224.0 C 512.1 201.8 569.1 179.8 607.5 172.0 C 645.9 164.2 697.2 164.1 728.5 172.0 C 759.8 179.9 796.9 203.1 816.0 224.5 Z"
    />
    <style><![CDATA[
      .treatment { shape-rendering: geometricPrecision; }
      .ui {
        text-rendering: geometricPrecision;
        -webkit-font-smoothing: antialiased;
      }
      .headline {
        fill: #f4f7fb;
        font-family: "Space Grotesk", "Avenir Next", "Helvetica Neue", sans-serif;
        font-size: 55px;
        font-weight: 600;
        letter-spacing: -0.05em;
      }
      .headline-accent {
        fill: #e3f6ff;
      }

      .subheadline {
        fill: #f4f7fb;
        font-family: "Space Grotesk", "Avenir Next", "Helvetica Neue", sans-serif;
        font-size: 32.2px;
        font-weight: 700;
        letter-spacing: -0.02em;
      }

      /* Orange subheader under the main headline only (not the proof chips). */
      .subheader-text {
        fill: #FF6A00;
        font-family: "Space Grotesk", "Avenir Next", "Helvetica Neue", sans-serif;
        font-size: 38.64px; /* 32.2 * 1.2 */
        font-weight: 700;
        letter-spacing: -0.02em;
      }

      /* Make the highlighted words match the subheader orange. */
      .subheader-text .headline-accent {
        fill: #FF6A00;
      }

      .subheadline .headline-accent {
        fill: #f4f7fb;
      }
      .cta-text {
        fill: #f7faff;
        font-family: "Space Grotesk", "Avenir Next", "Helvetica Neue", sans-serif;
        font-size: 21.6px;
        font-weight: 600;
        letter-spacing: -0.01em;
      }
      .hairline {
        fill: none;
        stroke: #15212f;
        stroke-width: 1;
        opacity: 0.88;
      }
      .guide-glint {
        fill: none;
        stroke-width: 2;
        stroke-linecap: round;
        opacity: 0.28;
      }
      .signal-path {
        fill: none;
        stroke-linecap: round;
        stroke-linejoin: round;
      }
      .signal-dash {
        fill: none;
        stroke-linecap: round;
        stroke-dasharray: 4 18;
        animation: dashFlow 18s linear infinite;
      }
      .signal-dash-slow {
        fill: none;
        stroke-linecap: round;
        stroke-dasharray: 1 42;
        animation: dashFlow 23s linear infinite reverse;
      }
      .pulse {
        animation: breathe 7s ease-in-out infinite;
        transform-box: fill-box;
        transform-origin: center;
      }
      .pulse-slow {
        animation: breathe 10s ease-in-out infinite;
        transform-box: fill-box;
        transform-origin: center;
      }
      .node-halo {
        animation: haloPulse 9s ease-in-out infinite;
        transform-box: fill-box;
        transform-origin: center;
      }
      .shimmer {
        animation: shimmer 8s ease-in-out infinite;
      }
      @keyframes dashFlow {
        to { stroke-dashoffset: -280; }
      }
      @keyframes breathe {
        0%, 100% { opacity: 0.42; }
        50% { opacity: 1; }
      }
      @keyframes haloPulse {
        0%, 100% { opacity: 0.16; transform: scale(1); }
        50% { opacity: 0.34; transform: scale(1.04); }
      }
      @keyframes shimmer {
        0%, 100% { opacity: 0.26; }
        50% { opacity: 0.52; }
      }
      @media (prefers-reduced-motion: reduce) {
        .signal-dash,
        .signal-dash-slow,
        .pulse,
        .pulse-slow,
        .node-halo,
        .shimmer {
          animation: none !important;
        }
      }
    ]]></style>
  </defs>

  <rect width="1600" height="900" fill="url(#bgGradient)"/>
  <rect width="1600" height="900" fill="url(#blueGlow)"/>
  <rect width="1600" height="900" fill="url(#amberGlow)"/>
  <rect width="1600" height="900" fill="url(#leftGlow)"/>
  <rect width="1600" height="900" fill="url(#gridPattern)" opacity="0.14"/>
  <rect width="1600" height="900" fill="url(#microPattern)" opacity="0.08"/>

  <g class="treatment" opacity="0.84">
    <path class="hairline" d="M120 136 H1480"/>
    <path class="hairline" d="M120 782 H1480"/>
    <path class="hairline" d="M836 186 V746" opacity="0.44"/>
    <path class="hairline" d="M880 280 H1440" opacity="0.34"/>
    <path class="hairline" d="M880 640 H1440" opacity="0.26"/>
  </g>

  <g class="treatment">
    <path class="guide-glint" d="M140 136 H202" stroke="#ff7a1a"/>
    <path class="guide-glint" d="M1252 782 H1418" stroke="#ff8a2e"/>
  </g>

  <g class="ui">
    <text class="headline" x="800" y="299" text-anchor="middle">
      <tspan x="800" dy="0">Warehouse radio traffic signals bottlenecks, exceptions, and delays.</tspan>
      <tspan class="subheader-text" x="800" dy="100.6">Memo turns that traffic <tspan class="headline-accent">into wall-to-wall operational visibility.</tspan></tspan>
    </text>

    <g transform="translate(649 510)">
      <rect width="362.4" height="74.4" rx="37.2" fill="url(#buttonFill)" stroke="url(#buttonStroke)" stroke-width="1.4"/>
      <rect x="12" y="12" width="338.4" height="50.4" rx="25.2" fill="none" stroke="#ffffff" stroke-opacity="0.04"/>
      <text class="cta-text" x="181.2" y="37.2" text-anchor="middle" dominant-baseline="central">Schedule a time to speak</text>
    </g>

    <!-- Proof lines: +85px vs prior gaps; "Rapid deployment" at x=683 -->
    <g transform="translate(0 678)">
      <g transform="translate(130 0)">
        <text class="subheadline" x="0" y="30">Your existing radios</text>
      </g>
      <g transform="translate(683 0)">
        <text class="subheadline" x="0" y="30">Rapid deployment</text>
      </g>
      <g transform="translate(1252 0)">
        <text class="subheadline" x="0" y="30">Fully on-prem</text>
      </g>
    </g>
  </g>

  <g class="treatment" style="display:none">
    <circle cx="1114" cy="462" r="172" fill="url(#nodeAura)" opacity="0.85"/>

    <path d="M1478 262 C1392 278 1328 320 1276 356 S1186 422 1114 462"
          class="signal-path" stroke="#081825" stroke-width="15" opacity="0.94"/>
    <path d="M1478 262 C1392 278 1328 320 1276 356 S1186 422 1114 462"
          class="signal-path" stroke="url(#signalGradient)" stroke-width="12" opacity="0.14" filter="url(#glowBlue)"/>
    <path d="M1478 262 C1392 278 1328 320 1276 356 S1186 422 1114 462"
          class="signal-path" stroke="url(#signalGradient)" stroke-width="4.8" opacity="0.26"/>

    <path d="M1492 360 C1406 360 1332 386 1278 416 S1190 440 1114 462"
          class="signal-path" stroke="#081825" stroke-width="13" opacity="0.94"/>
    <path d="M1492 360 C1406 360 1332 386 1278 416 S1190 440 1114 462"
          class="signal-path" stroke="url(#signalGradient)" stroke-width="10" opacity="0.12" filter="url(#glowBlue)"/>
    <path d="M1492 360 C1406 360 1332 386 1278 416 S1190 440 1114 462"
          class="signal-path" stroke="url(#signalGradient)" stroke-width="4.2" opacity="0.22"/>

    <path d="M1474 538 C1386 538 1322 518 1266 496 S1186 474 1114 462"
          class="signal-path" stroke="#081825" stroke-width="13" opacity="0.94"/>
    <path d="M1474 538 C1386 538 1322 518 1266 496 S1186 474 1114 462"
          class="signal-path" stroke="url(#signalGradient)" stroke-width="10" opacity="0.12" filter="url(#glowBlue)"/>
    <path d="M1474 538 C1386 538 1322 518 1266 496 S1186 474 1114 462"
          class="signal-path" stroke="url(#signalGradient)" stroke-width="4.2" opacity="0.22"/>

    <path d="M1420 724 C1366 664 1316 602 1262 548 S1182 486 1114 462"
          class="signal-path" stroke="#081825" stroke-width="14" opacity="0.94"/>
    <path d="M1420 724 C1366 664 1316 602 1262 548 S1182 486 1114 462"
          class="signal-path" stroke="url(#signalGradient)" stroke-width="11" opacity="0.12" filter="url(#glowBlue)"/>
    <path d="M1420 724 C1366 664 1316 602 1262 548 S1182 486 1114 462"
          class="signal-path" stroke="url(#signalGradient)" stroke-width="4.6" opacity="0.24"/>

    <path d="M1446 294 C1364 300 1312 332 1266 364 S1186 424 1114 462"
          class="signal-dash" stroke="#7de6ff" stroke-width="2.2" opacity="0.26"/>
    <path d="M1460 570 C1388 556 1322 528 1270 498 S1188 472 1114 462"
          class="signal-dash-slow" stroke="#ff8a2e" stroke-width="4" opacity="0.22"/>

    <path d="M1114 462 C1054 422 1014 392 964 366 S890 352 816 358"
          class="signal-path" stroke="#091722" stroke-width="12" opacity="0.92"/>
    <path d="M1114 462 C1054 422 1014 392 964 366 S890 352 816 358"
          class="signal-path" stroke="url(#signalGradientReverse)" stroke-width="7" opacity="0.18"/>
    <path d="M1114 462 C1056 448 1010 450 960 450 S888 450 820 450"
          class="signal-path" stroke="#091722" stroke-width="10" opacity="0.92"/>
    <path d="M1114 462 C1056 448 1010 450 960 450 S888 450 820 450"
          class="signal-path" stroke="url(#signalGradientReverse)" stroke-width="6.5" opacity="0.18"/>
    <path d="M1114 462 C1054 504 1014 534 968 558 S898 584 844 582"
          class="signal-path" stroke="#091722" stroke-width="12" opacity="0.92"/>
    <path d="M1114 462 C1054 504 1014 534 968 558 S898 584 844 582"
          class="signal-path" stroke="url(#signalGradientReverse)" stroke-width="7" opacity="0.18"/>

    <g opacity="0.96">
      <circle cx="1114" cy="462" r="90" fill="none" stroke="#1fe1ff" stroke-opacity="0.05" class="node-halo"/>
      <circle cx="1114" cy="462" r="58" fill="none" stroke="#7de6ff" stroke-opacity="0.16" class="node-halo" style="animation-delay:-1.8s"/>
      <circle cx="1114" cy="462" r="30" fill="#09131d" stroke="#29475c" stroke-width="1.4"/>
      <circle cx="1114" cy="462" r="22" fill="#08121a" stroke="#7de6ff" stroke-opacity="0.42" stroke-width="1.4"/>
      <circle cx="1114" cy="462" r="10" fill="#ff8a2e" opacity="0.22" class="pulse" filter="url(#glowAmber)"/>
      <g transform="translate(1102.8 450.8) scale(0.021875)" class="pulse-slow">
        <use href="#memoLogoIconPath"/>
      </g>
    </g>

    <g transform="translate(788 334)">
      <rect width="178" height="42" rx="21" fill="url(#chipFill)" stroke="url(#chipStroke)" stroke-width="1.1"/>
      <rect x="9" y="9" width="160" height="24" rx="12" fill="none" stroke="#ffffff" stroke-opacity="0.04"/>
      <rect x="14" y="15" width="82" height="12" rx="6" fill="url(#barFill)" class="shimmer"/>
      <circle cx="150" cy="21" r="4" fill="#1fe1ff" class="pulse"/>
    </g>
    <g transform="translate(776 429)">
      <rect width="196" height="42" rx="21" fill="url(#chipFill)" stroke="url(#chipStrokeWarm)" stroke-width="1.1"/>
      <rect x="9" y="9" width="178" height="24" rx="12" fill="none" stroke="#ffffff" stroke-opacity="0.04"/>
      <rect x="14" y="15" width="118" height="12" rx="6" fill="url(#barFillWarm)" class="shimmer" style="animation-delay:-1.2s"/>
      <circle cx="168" cy="21" r="4" fill="#ff8a2e" class="pulse-slow"/>
    </g>
    <g transform="translate(812 561)">
      <rect width="158" height="42" rx="21" fill="url(#chipFill)" stroke="url(#chipStroke)" stroke-width="1.1"/>
      <rect x="9" y="9" width="140" height="24" rx="12" fill="none" stroke="#ffffff" stroke-opacity="0.04"/>
      <rect x="14" y="15" width="64" height="12" rx="6" fill="url(#barFill)" class="shimmer" style="animation-delay:-2.4s"/>
      <circle cx="132" cy="21" r="4" fill="#7de6ff" class="pulse"/>
    </g>

    <g opacity="0.68">
      <circle cx="1478" cy="262" r="5" fill="#7de6ff"/>
      <circle cx="1492" cy="360" r="5" fill="#dfeeff"/>
      <circle cx="1474" cy="538" r="5" fill="#1fe1ff"/>
      <circle cx="1420" cy="724" r="5" fill="#ff8a2e"/>
      <circle cx="816" cy="358" r="5" fill="#7de6ff"/>
      <circle cx="820" cy="450" r="5" fill="#ff8a2e"/>
      <circle cx="844" cy="582" r="5" fill="#7de6ff"/>
    </g>
  </g>
</svg>
